<?xml version="1.0" encoding="utf-8"?>
<!-- Generator: Adobe Illustrator 21.0.2, SVG Export Plug-In . SVG Version: 6.00 Build 0)  -->
<svg version="1.1" id="Слой_1" xmlns="http://www.w3.org/2000/svg" xmlns:xlink="http://www.w3.org/1999/xlink" x="0px" y="0px"
	 viewBox="0 0 508 655" style="enable-background:new 0 0 508 655;" xml:space="preserve">
<style type="text/css">
	.st0{fill:#FFFFFF;}
</style>
<image style="overflow:visible;enable-background:new    ;" width="509" height="655" id="balloon_black_xA0_Image_1_" xlink:href="F9E5D92D.png"  transform="matrix(0.998 0 0 1 0 0)">
</image>
<g>
	<path class="st0" d="M374,333.8c-0.1-0.3-0.7-0.8-1-0.8c-2.2,0.2-4.4,0.2-6.5,0.7c-2.5,0.5-4.8,1.7-7.3,2.2
		c-4.3,0.8-8.2,2.8-11.7,5.2c-3.4,2.3-6.5,5.3-9.2,8.4c-3.6,4.1-6.9,8.4-8.9,13.6c-0.8,2.1-1.9,4.3-2,6.5c-0.2,5.5,0.2,11,0.3,16.5
		c0.3,9.4,0.7,18.7,0.9,28.1c0.1,2.9-0.1,5.7-1.3,8.5c-1.8,4.3-3.7,8.4-6.8,11.9c-3,3.4-6.5,6.1-11,6.8c-3.1,0.5-6.3,0.3-9.5,0.5
		c-2.9,0.2-5.1-1.6-7.7-2.3c-1.3-0.4-2.5-0.9-3.7-1.6c-1.4-0.7-2.7-1.5-4-2.4c-2.3-1.6-4.8-3-6.8-5c-2.7-2.7-5.5-5.5-7.3-9.1
		c-1-2.1-2.6-3.9-2.5-6.4c0-0.8-0.3-1.6-0.6-2.4c-0.6-1.9,0.1-3.2,2-3.7c0.8-0.2,1.7-0.2,2.4-0.5c2-0.6,2.2-1.7,1-3.3
		c-1.9-2.7-4.7-4.8-5.6-8.3c-0.4-1.7-1-3.3-1.4-4.9c-0.1-0.3,0.3-0.8,0.5-1.1c0.3-0.3,0.8-0.5,1.2-0.7c0-0.1,0-0.3,0-0.4
		c-0.4-0.1-0.7-0.3-1.1-0.2c-3.5,0.1-7,0.3-10.4,0.3c-4.3,0-8.6,0.2-12.9-0.3c-3-0.3-5.9-1.6-8.7-2.5c-1.4-0.5-2.7-1.2-4.1-1.9
		c-1.7-0.8-3.4-1.5-5-2.4c-2-1.1-4-2.3-5.9-3.6c-2.8-1.9-5.6-3.7-8.2-5.9c-2.5-2-4.8-4.3-7-6.6c-2.7-2.9-5.4-5.9-7.9-9
		c-2.1-2.7-4-5.7-5.8-8.6c-0.7-1.1-1.5-1.1-2.3-0.3c-1.6,1.5-3.6,1.8-5.7,1.7c-1.7-0.1-3.4-0.3-5.1-0.3c-1-0.1-1.9,0.3-1.3,1.4
		c1.3,2.4,2.8,4.7,4.3,7c0.8,1.2,1.9,2.1,2.7,3.2c5,6.6,11.3,11.8,17.9,16.7c2.5,1.9,5.1,3.8,7.7,5.5c2.3,1.4,4.7,2.5,7.2,3.6
		c2,0.9,4.1,1.7,6.1,2.5c1.7,0.7,3.4,1.6,5.2,2c4,0.8,8,1.3,12,1.8c2.5,0.3,5,0.4,7.5,0.6c2.1,0.2,2.5,1.3,1.4,3.1
		c-1.4,2.3-2.8,4.6-4,7c-0.9,1.7-1.3,3.7-2.1,5.4c-0.8,1.9-0.7,2.1,1.4,2.1c5.7,0,11.3-0.1,17-0.1c2.1,0,2.8,0.5,3.3,2.6
		c0.2,0.8,0.2,1.6,0.3,2.3c0.3,1.4,0.5,2.8,1.1,4c1.9,3.7,4.1,7.2,6.9,10.3c3.2,3.6,6.3,7.3,11.2,8.8c1.5,0.5,2.8,1.6,4.2,2.2
		c2.3,1,4.5,2.4,7.3,2.1c2.9-0.3,5.9-0.1,8.9-0.1c2.6,0,5.1,0,7.5-1.4c3.3-2,6.9-3.6,9.4-6.7c1.5-1.9,3.4-3.7,5.3-5.3
		c1.6-1.3,3-2.4,3.8-4.4c1.2-3,2.3-5.9,2.9-9.2c1.2-6.7,1.4-13.4,0.9-20.2c-0.2-3.4-1-6.8-1.2-10.2c-0.4-7,0.3-14,0.9-21
		c0.4-4.2,1.9-7.6,4.1-10.8c2.6-3.7,5.8-7.1,9.5-9.9c1.6-1.2,3.3-2.2,5.1-3.2c1.7-1,3.5-1.8,5.3-2.6c2.4-1,4.7-2,7.2-2.7
		c2.1-0.5,4.3-0.4,6.5-0.7c0.7-0.1,1.5-0.4,2.2-0.7C373.8,334.9,374.1,334.2,374,333.8z"/>
	<path class="st0" d="M156.7,276.2c0,1.1,0.5,1.9,1.6,2c2.6,0.4,5.2,0.6,7-2c0.5-0.7,1.2-1.2,1.7-1.8c0.3-0.3,0.6-0.8,0.6-1.2
		c1-6,2-12.1,2.8-18.2c0.5-4,1.3-7.8,3-11.5c2-4.2,3.9-8.5,6.1-12.7c2.2-4.4,4.8-8.6,7.8-12.6c4.5-6,9.8-11.2,15.6-15.8
		c3.2-2.6,7-4.5,10.8-6.4s7.7-3.7,11.7-4.8c5.2-1.5,10.4-3,15.9-2.8c3.2,0.1,6.4,0.3,9.6,0.2c5.2-0.1,9.8,2.1,14.6,3.6
		c1.4,0.4,2.9,0.8,4.2,1.5c4.1,2.2,8.3,4.4,12.3,6.9c3.7,2.3,7.5,4.5,10.6,7.5c5.9,5.6,11.7,11.5,16.4,18.3c1.7,2.5,3.6,5,5.1,7.6
		c1.5,2.5,2.8,5.2,4,7.9c1.2,2.6,2.2,5.4,3,8.1s1.4,5.5,2.1,8.3c0.3,1,0.6,2,1,2.9c0.2,0.4,0.7,0.8,1.1,0.8c3,0,6-0.1,9-0.2
		c0.9,0,1.1-0.5,0.9-1.4c-0.9-3-1.6-6-2.5-8.9c-0.6-1.9-1.3-3.8-2-5.7c-0.7-1.8-1.5-3.6-2.3-5.4c-1.2-2.7-2.3-5.4-3.7-8
		c-2.3-3.9-4.7-7.8-7.3-11.5c-1.7-2.5-3.6-5-5.8-7.1c-5.5-5.2-11.1-10.1-16.8-15.1c-1.5-1.3-3.2-2.3-4.9-3.2
		c-2.4-1.3-4.9-2.5-7.4-3.6c-2.2-1-4.6-1.8-6.8-2.7c-0.6-0.2-1.2-0.4-1.8-0.6c-2.7-0.8-5.4-1.9-8.2-2.3c-4.1-0.6-8.3-0.8-12.4-0.9
		c-3.1-0.1-6.2,0-9.3,0.3c-4.4,0.5-8.9,0.4-13.2,2c-0.1,0.1-0.3,0-0.5,0.1c-3.1,0.8-6.1,1.6-9.2,2.4c-1.2,0.3-2.5,0.6-3.7,1.2
		c-3.6,1.7-7.1,3.5-10.6,5.4c-3.1,1.7-6.2,3.4-9.1,5.5c-3.1,2.1-6,4.4-8.7,6.9c-4.7,4.4-9.3,8.9-13.6,13.7c-2.3,2.6-3.8,5.8-5.6,8.7
		c-0.9,1.4-2,2.8-2.7,4.3c-1.6,3.1-3,6.3-4.4,9.5c-0.8,1.7-1.5,3.4-2.1,5.2c-0.7,2.4-1.1,5-1.8,7.4c-1.3,4.4-2.3,8.8-1.9,13.8
		C156.7,273,156.7,274.6,156.7,276.2z"/>
	<path class="st0" d="M225.6,300.1c0.7,0,1.6,0.3,2,0.8c0.7,0.9,1.1,2.1,1.6,3.2c1.2,2.9,2.4,5.8,3.7,8.7c1.3,2.9,2.9,5.7,3.9,8.7
		c1.1,3,3.5,4.6,5.7,6.6c0.6,0.6,1.3,0.4,1.6-0.4c0.5-1.4,1-2.8,1.4-4.3c0.7-2.6,1.3-5.2,2-7.8c0.8-2.7,1.7-5.4,2.4-8.2
		c0.7-2.4,1.2-4.8,1.9-7.2c0.1-0.3,0.5-0.8,0.8-0.8s0.7,0.4,0.8,0.7c0.2,0.6,0.2,1.3,0.3,2c0.2,5.4,0.5,10.8,0.6,16.2
		c0.1,4.6,2.5,8.4,4.2,12.4c0.1,0.2,0.4,0.5,0.7,0.5c2.4,0.6,5.8-2.2,5.5-4.6c-0.4-3.1-1-6.3-1.5-9.4c-0.9-5.4-1.8-10.7-2.6-16.1
		c-0.7-4.2-1.3-8.4-2-12.6c-0.1-0.7-0.4-1.4-0.7-2.1c-1.4-2.8-4.5-3.4-6.6-1.1c-0.7,0.7-0.8,2-1.1,3c-1.3,4.4-2.7,8.8-4,13.2
		c-1.1,3.7-2.1,7.5-3.2,11.2c-0.2,0.5-0.7,0.9-1.1,1.3c-0.4-0.5-0.9-0.9-1.2-1.4c-1.3-2.5-2.5-5.1-3.7-7.6c-1.2-2.5-2.5-5-3.7-7.5
		c-1.6-3.3-3-6.7-5.6-9.4c-1.3-1.3-2.4-1.5-3.9-0.9c-1.6,0.6-2,1.8-1.9,3.4c0.2,5.3,0.4,10.7,0.5,16.1c0.2,8,0.3,16,0.5,24
		c0,0.8,0.5,1.6,0.9,2.4c0.2,0.3,0.8,0.4,1.3,0.6c0.1-0.4,0.4-0.8,0.4-1.3c-0.2-9.8-0.5-19.6-0.7-29.5c0,0,0,0-0.1,0
		c0-0.5-0.1-1,0-1.4C224.9,301,225.3,300.1,225.6,300.1z"/>
	<path class="st0" d="M188.2,302.1c-1,3.9-2,7.9-2.9,11.9c-0.6,2.6-1.2,5.1-1.8,7.7c-0.8,3.3-1.6,6.5-2.4,9.8
		c-0.3,1.2-0.6,2.3-0.9,3.4c0.1,0.9-0.1,2,1.2,2c1.1,0.1,2.3,0.3,2.7-1.2c0.6-2.5,1.1-5.1,1.7-7.6c0.5-2.2,1-4.5,1.7-6.6
		c0.2-0.6,1.2-1.3,1.8-1.3c4.1-0.1,8.1-0.1,12.2-0.1c1.2,0,1.9,0.6,2,1.9c0.1,0.8,0.3,1.6,0.6,2.4c0.8,2.5,1.6,5,2.3,7.5
		c0.8,3.1,2.9,4.1,5.6,2.5c0.4-0.2,0.8-0.3,1.1-0.5c1.8-0.8,3.9-4.2,3.4-6.1c-0.7-2.5-1.5-5.1-2.5-7.5c-1-2.5-2.3-4.9-3.5-7.4
		c-1.2-2.6-2.4-5.3-3.6-7.9c-1.8-3.7-3.8-7.2-5.4-11c-1.1-2.5-2.4-4.6-4.6-6.1c-0.5-0.3-1.2-0.5-1.8-0.5c-2.2,0-2.9,1.8-3.5,3.4
		C190.3,294.7,189.2,298.4,188.2,302.1z M192.9,297.9c0.4,0,1,0.4,1.2,0.8c1.1,2,2,3.9,3,5.9c1.4,3,2.7,6,4.1,9
		c0.8,1.7,0.4,2.7-1.5,2.8c-0.8,0-1.6-0.1-2.3-0.1c-0.8,0-1.6,0-2.3,0c0,0,0,0,0-0.1c-1.7,0-3.4,0.1-5.1,0c-1.5-0.1-1.8-0.7-1.5-2.2
		c0.8-3.2,1.4-6.5,2.2-9.7c0.4-1.9,0.9-3.7,1.5-5.5C192.2,298.4,192.7,297.8,192.9,297.9z"/>
	<path class="st0" d="M332.4,293.8c-0.3,0.1-1.2-0.9-1.7-1.4c-0.2-0.2-0.4-0.4-0.5-0.6c-3.8-4.1-7.5-8.3-11.4-12.4
		c-0.7-0.8-1.8-1.2-2.5-1.7c-1.3,0.3-2.1,0.4-2.8,0.7c-3.3,1.3-4.1,4.4-1.7,7c4.4,5,8.9,10,13.3,15c0.4,0.5,0.7,1.3,0.8,2
		c0.3,2.7,0.4,5.5,0.7,8.2c0.3,3.5,0.4,7,0.9,10.4c0.4,2.5,3.1,4,5.8,3.9c2.7-0.2,4.2-2.3,4.1-4.9c0-0.8,0-1.6-0.1-2.3
		c-0.4-3.5-0.9-7-1.2-10.5c-0.5-4.4-0.7-8.8,1.8-12.9c1.7-2.8,2.9-5.9,4.2-8.9c1.2-2.5,2.2-5,3.5-7.4c0.7-1.3,0.5-2.1-0.5-2.8
		c-1-0.7-2.3-0.4-2.9,0.7c-0.6,1-1,2.2-1.5,3.2c-2,4.2-3.9,8.4-5.9,12.6C334.2,292.7,333.3,293.4,332.4,293.8z"/>
	<path class="st0" d="M285.9,292.2c0.1,1.1,0.1,2.2,0.2,3.3c0.5,8,1,16.1,1.3,24.1c0.1,2.8,0.6,5.3,1.6,7.9c0.2,0.4,1,1,1.4,0.9
		c4.9-0.5,9.7-1,14.5-1.7c3.8-0.5,7.7,0.2,11.3-1.8c0.9-0.5,1.3-1,1.3-2s-0.5-1.7-1.5-1.8c-0.8-0.1-1.7-0.2-2.5-0.2
		c-4.5,0.1-9,0.3-13.6,0.5c-2.1,0.1-2.9-0.5-3-2.6c-0.8-11.7-1.5-23.4-2.2-35.1c-0.1-1.6-0.5-2.6-1.9-3.4c-1.3-0.7-2.5-0.8-3.7-0.1
		c-1.5,0.9-3.4,1.5-3.3,3.9C286,286.8,285.9,289.5,285.9,292.2L285.9,292.2z"/>
	<path class="st0" d="M173.5,312.9c-3.6,0.3-7.3,0.6-10.9,0.8c-1.3,0.1-2.4-0.2-2.5-1.7c-0.3-4.3-0.5-8.5-0.7-12.8
		c0-0.6,0.4-1.5,0.9-1.8c3.3-1.8,6.6-3.7,10.6-3.3c0.6,0.1,1.4-0.5,2-0.7c-0.7-0.4-1.3-0.9-2.1-1.3c-0.2-0.1-0.5,0-0.8,0
		c-2,0-4.1,0-6.1,0c0,0,0,0,0-0.1c-2.4,0-4.9-0.1-7.3,0c-0.9,0.1-1.8,0.7-2.8,1c-2.4,0.7-3.3,2.3-3.1,4.8c0.6,7.7,1.1,15.4,1.7,23.2
		c0.5,5.4-0.5,10.9,1.7,16.2c0.5,1.2,2.8,2.8,4.1,2.4c2.9-0.7,4-2.4,3.7-5.4c-0.3-3.7-0.5-7.4-0.9-11c-0.3-2.5-0.4-4.6,2.8-5.1
		l0.1-0.1c2.2-1,4.4-2.3,7-2.4c0.8,0,1.7-0.1,2.5-0.1c1,0,1.8-0.4,1.6-1.5C175.2,312.9,174.5,312.8,173.5,312.9z"/>
	<path class="st0" d="M218,266.2c1,0.7,2.9,0.6,4.3,0.3c1.2-0.3,2-1.5,1.9-3.1c-0.1-3.4,0-6.8-0.1-10.1c0-1.3,0.6-1.9,1.9-1.9
		c1.5,0,2.9,0,4.4,0c1.4,0,2,0.7,2,2.2c-0.1,2.8,0,5.5,0,8.3c0,1.2,0.4,1.7,1.7,1.7c2.4-0.1,3.8-1.4,3.8-3.9c0-4.5,0-8.9,0-13.4l0,0
		c0-4.1,0-8.2,0-12.3c0-3.1,0-3.1-3-3.3c-0.2,0-0.3,0-0.5,0c-1.6-0.1-1.9,0.2-1.9,1.8c0,4,0,7.9,0.1,11.9c0,1.4-0.6,2.3-1.9,2.7
		c-1.3,0.4-2.6,0.5-3.9,1c-2.1,0.7-2.6,0.5-2.6-1.8c-0.1-3.5-0.1-7-0.2-10.4c0-0.7-0.4-1.6-0.9-2.1c-1.3-1.1-2.8-1.4-4.3-0.6
		c-1.6,0.8-2.2,2.2-2.2,4c0.1,8.5,0.1,16.9,0.2,25.4C216.6,263.6,217,265.5,218,266.2z"/>
	<path class="st0" d="M286.2,248c1.2-1,2.5-2,3.7-3.1c1.7-1.6,2.8-3.7,3.1-5.9c0.3-2.2,0.2-4.6-0.1-6.8c-0.2-1.7-0.9-3.4-1.7-4.9
		c-0.4-0.7-1.5-1.5-2.3-1.5c-3.5-0.2-6.8,0.4-9.6,2.8c-1.1,1-2.1,1.3-3.5,0.2c-0.5-0.4-1.7-0.3-2.4,0c-0.4,0.1-0.6,1.2-0.5,1.7
		c0.7,6.5,1.5,13,2.4,19.5c0.4,3.3,1,6.7,1.6,10c0.3,1.4,1.5,1.2,2.5,1.3c1.1,0.1,1.3-0.7,1.3-1.6c0-1.1,0-2.2,0-3.3l0,0
		c0-1.2-0.1-2.5,0-3.7c0-0.4,0.5-1,0.9-1.1c0.3-0.1,0.9,0.2,1.2,0.5c1.8,1.8,3.4,3.6,5.2,5.3c1.5,1.4,2.7,3.4,5,3.7
		c0.4,0.1,0.9,0.1,1.1-0.1s0.3-0.8,0.2-1.1c-0.2-0.5-0.5-0.9-0.9-1.2c-2.4-2.5-4.9-4.9-7.3-7.4C284.7,249.7,284.8,249.2,286.2,248z
		 M283.5,246.6c-0.6,0.4-1.4,0.4-2.1,0.6c-0.2-0.7-0.5-1.5-0.4-2.2c0.3-2.7,0.7-5.3,1-8c0-0.4,0.1-0.7,0.1-1.1
		c0-3.2,1.2-4.3,4.4-4.4c2.3-0.1,3.9,1.3,4.1,3.7c0.2,3.6-0.9,6.6-3.8,8.9C285.7,244.9,284.6,245.8,283.5,246.6z"/>
	<path class="st0" d="M204.7,235.9c0.6,0.1,1.3,0.1,1.9-0.1c0.4-0.1,0.9-0.6,0.9-1s-0.5-1.1-0.8-1.1c-1.5,0-3.3-0.3-4.6,0.3
		c-2.6,1.1-5.2,2.5-7.3,4.3c-1.5,1.4-2.6,3.6-2.9,5.7c-0.4,3,3.7,7.6,6.6,8.8c1.9,0.8,3.8,2.1,5.4,3.5c1.7,1.5,1.4,5.1-0.4,6.4
		c-2.5,1.8-5.3,2.9-8.6,2.5c-0.9-0.1-2-0.3-2.2,1s0.7,1.8,1.8,1.9c1.5,0.2,3,0.3,4.5,0.5c0,0.1,0.1,0.2,0.1,0.3
		c1.6-0.4,3.4-0.6,4.8-1.3c1.5-0.7,2.7-1.9,4-2.9c1.9-1.4,3.1-3.3,3.8-5.3c1.3-4-0.7-8.4-4.6-10.1c-2.7-1.2-4.9-2.8-6.9-4.9
		c-0.5-0.5-0.9-1.2-1-1.8C198.3,239,200.6,235.5,204.7,235.9z"/>
	<path class="st0" d="M278.3,386.2c1.2-0.5,2.5-1,3.7-1.6c2.6-1.3,5.2-2.5,7.6-4.1c3.2-2.1,6-4.6,9.2-6.6c4.5-2.8,7.6-6.9,10.8-10.8
		c2.6-3.3,4.9-6.8,7.3-10.2c2.1-2.9,4.2-5.8,6.2-8.8c0.3-0.4,0.2-1.5-0.1-1.7c-1.6-1.2-3.4-2.2-5.1-3.3c-0.7-0.4-1.1-0.3-1.5,0.4
		c-0.3,0.5-0.8,1-1,1.6c-0.7,1.7-1.3,3.5-2.1,5.2c-0.7,1.7-1.6,3.4-2.5,5c-1.1,1.9-2.3,3.7-3.3,5.6c-1.8,3.3-3.7,6.5-6.3,9.2
		c-2.6,2.7-4.9,5.7-7.6,8.2c-4,3.7-8.4,6.9-13.2,9.6c-1.1,0.6-2,1.3-3,2c0.1,0.1,0.1,0.3,0.2,0.4
		C277.8,386.1,278.1,386.3,278.3,386.2z"/>
	<path class="st0" d="M268.5,261.1c1.4-2.4,0.4-4.7-0.5-6.8c-1.7-3.8-3.7-7.4-5.5-11.1c-2.1-4.3-4.2-8.7-6.3-13.1
		c-0.3-0.5-1.2-1-1.8-1c-0.6,0-1.6,0.5-1.8,1.1c-0.7,1.7-1.2,3.5-1.7,5.3c-1.2,4.5-2.3,8.9-3.5,13.4c-0.5,1.9-1.1,3.9-1.6,5.8
		s-1,3.9-1.6,5.8c0.1,0,0.2,0.1,0.3,0.1c0,0.2,0,0.4,0,0.6c0.2,0.7,0.4,1.5,0.6,2.2c0.6-0.6,1.3-1.2,1.9-1.8
		c0.1-0.1,0.1-0.3,0.2-0.4c0.6-2.3,1.1-4.6,1.7-6.9c0.3-1.4,0.9-2.7,2.5-2.8c2.7-0.1,5.4-0.1,8.1,0c0.6,0,1.5,0.8,1.8,1.4
		c0.8,1.8,1.2,3.7,1.9,5.6c0.4,1,0.9,2,1.5,2.9C265.5,262.6,267.8,262.4,268.5,261.1z M257.7,248.9c-1.1,0.1-2.3,0.2-3.4,0.2l0,0
		c-0.9,0-1.9,0.1-2.8,0.1c-1.4,0-1.9-0.7-1.7-2c0.7-3.1,1.3-6.3,2.1-9.4c0.1-0.5,0.9-1.3,1.4-1.3c0.6,0,1.5,0.6,1.8,1.2
		c1.3,3.1,2.5,6.2,3.7,9.3C259.3,248.3,258.7,248.8,257.7,248.9z"/>
	<path class="st0" d="M271.8,322.7c0.5,1.9,1.1,3.6,2.3,5.1c1.2,1.5,3.2,2.2,5,1.5c0.6-0.2,1.4-1,1.4-1.5c0-1.6-0.3-3.2-0.7-4.7
		c-0.5-1.6-1.7-2.9-2-4.5c-0.5-2.4-0.6-4.9-0.6-7.4c-0.1-1.6,0.2-3.2,0.3-4.8c0,0,0,0-0.1,0c0-0.9,0.1-1.8,0-2.6
		c-0.3-2.6-1.6-3.5-4.2-2.9c-1.2,0.3-2.4,2.1-2.3,4C271.2,310.8,270.4,316.8,271.8,322.7z"/>
	<path class="st0" d="M271.1,292.4c1.4,0.2,3.1,0.3,4.3-0.4c1.4-0.7,1.2-2.5,0.8-4c-0.2-1-2.2-2.5-3.1-2.1c-1,0.4-1.9,1.3-2.6,2.1
		c-0.3,0.3,0,1.1,0,1.7c-0.1,0-0.3,0.1-0.4,0.1C270.3,290.8,270.6,292.4,271.1,292.4z"/>
</g>
</svg>
